<svg width="489" height="584" viewBox="0 0 489 584" fill="none" xmlns="http://www.w3.org/2000/svg">
<path d="M252.334 1.9692C244.6 2.90253 234.2 4.50253 229.134 5.30253C220.467 6.90253 219.934 7.1692 218.067 11.8359C215.134 18.6359 216.467 30.2359 221.134 39.5692C223.8 44.6359 230.334 52.3692 242.467 64.5025C252.067 74.2359 262.467 85.9692 265.667 91.0359C271.534 100.236 274.867 102.903 282.467 104.503C285.8 105.303 288.2 104.369 296.867 98.6359C323.8 81.0359 346.067 74.3692 378.334 74.3692C405.134 74.2359 429 79.5692 450.334 90.2359C458.067 94.2359 477.134 107.169 485.534 114.369C491 119.036 491.267 119.036 490.467 115.969C489.934 114.103 487.134 107.703 484.2 101.569C461.267 52.6359 412.734 18.2359 348.467 5.30253C320.6 -0.164134 281.4 -1.6308 252.334 1.9692Z" fill="#DD2727"/>
<path d="M183 14.2359C171.267 16.2359 143.134 28.6359 126.067 39.5692C110.067 49.7026 93.6669 63.0359 79.5336 77.5692C45.4002 112.503 25.8002 148.903 25.6669 177.436C25.6669 181.569 24.2002 186.903 21.1336 193.436C-11.1331 263.836 -6.19978 364.769 33.1336 436.903C36.4669 443.036 39.5336 447.836 39.9336 447.569C40.3336 447.169 39.9336 440.236 39.0002 432.236C35.8002 401.969 43.6669 364.903 59.2669 336.236C70.4669 315.703 90.2002 292.903 108.334 279.703C126.734 266.236 138.2 260.503 162.2 252.636C211.4 236.503 237.667 218.103 253 189.036C269.134 158.636 265.534 116.769 244.6 90.6359C241.934 87.3026 233.134 77.9692 224.867 69.9692C205.934 51.1692 201.667 43.3026 200.6 25.3026L199.934 13.3026L193.134 13.4359C189.4 13.5692 184.867 13.9692 183 14.2359Z" fill="#DD2727"/>
<path d="M276.867 117.569C277.4 119.303 278.467 126.503 279.267 133.703C281.134 149.303 279.4 165.969 274.467 179.303C271.4 187.836 271.534 189.969 275.267 188.636C280.6 186.636 307 183.836 331 182.636C346.067 181.836 364.734 180.369 372.734 179.303C411.8 173.703 439.267 159.436 456.067 136.103C465.134 123.303 465.134 121.969 455.267 125.969C444.067 130.503 420.867 134.636 406.334 134.636C388.6 134.636 375 131.703 362.467 125.303L351.8 119.836L343.134 124.236C335.267 128.236 333.4 128.636 323.134 128.636C310.734 128.636 299.8 125.703 285.4 118.503C276.2 113.836 275.8 113.836 276.867 117.569Z" fill="#DD2727"/>
<path d="M125.8 287.569C115.267 294.769 97.4002 312.236 88.6002 323.836C57.1335 365.569 48.4668 424.903 66.4668 474.903C71.4002 488.503 76.7335 496.236 90.6002 509.436C127.667 545.169 175.667 569.569 229 579.969C250.067 584.103 283.4 585.036 306.734 582.103C357.934 575.569 401.267 557.169 441 525.036C451.4 516.636 485.934 481.703 488.467 477.036C489.134 475.836 483.4 478.503 475.4 483.436C428.467 511.969 388.067 524.236 341 524.369C308.867 524.369 280.867 518.103 252.6 504.636C170.067 465.169 124.734 384.236 134.067 292.903C134.6 287.303 134.6 282.636 134.067 282.636C133.534 282.769 129.8 284.903 125.8 287.569Z" fill="#DD2727"/>
</svg>
